<?xml version="1.0" encoding="UTF-8" standalone="no"?>
<!-- Created with Inkscape (http://www.inkscape.org/) -->

<svg xmlns:dc="http://purl.org/dc/elements/1.1/" xmlns:cc="http://creativecommons.org/ns#"
   xmlns:rdf="http://www.w3.org/1999/02/22-rdf-syntax-ns#" xmlns:svg="http://www.w3.org/2000/svg"
   xmlns="http://www.w3.org/2000/svg" xmlns:sodipodi="http://sodipodi.sourceforge.net/DTD/sodipodi-0.dtd"
   xmlns:inkscape="http://www.inkscape.org/namespaces/inkscape" width="450" height="600" viewBox="0 0 119.0625 158.75"
   version="1.1" id="svg956" inkscape:version="0.92.3 (2405546, 2018-03-11)" sodipodi:docname="No image (male).svg">
   <defs id="defs950" />
   <sodipodi:namedview id="base" pagecolor="#ffffff" bordercolor="#666666" borderopacity="1.0"
      inkscape:pageopacity="0.0" inkscape:pageshadow="2" inkscape:zoom="0.35" inkscape:cx="1300.4001"
      inkscape:cy="240.86037" inkscape:document-units="mm" inkscape:current-layer="layer1" showgrid="false"
      fit-margin-top="0" fit-margin-left="0" fit-margin-right="0" fit-margin-bottom="0" units="px"
      inkscape:window-width="1920" inkscape:window-height="991" inkscape:window-x="-10" inkscape:window-y="-10"
      inkscape:window-maximized="1" />
   <metadata id="metadata953">
      <rdf:RDF>
         <cc:Work rdf:about="">
            <dc:format>image/svg+xml</dc:format>
            <dc:type rdf:resource="http://purl.org/dc/dcmitype/StillImage" />
            <dc:title></dc:title>
         </cc:Work>
      </rdf:RDF>
   </metadata>
   <g inkscape:label="Laag 1" inkscape:groupmode="layer" id="layer1" transform="translate(486.28532,75.155366)">
      <g id="g2126" transform="matrix(2.1126687,0,0,2.1126762,445.39642,-385.2799)">
         <rect y="146.79227" x="-440.99756" height="75.141663" width="56.356251" id="rect2105"
            style="opacity:1;vector-effect:none;fill:#e6e6e6;fill-opacity:1;stroke:none;stroke-width:2.01099992;stroke-linecap:round;stroke-linejoin:round;stroke-miterlimit:4;stroke-dasharray:none;stroke-dashoffset:0;stroke-opacity:1;paint-order:normal" />
         <path id="path2315_2_" transform="scale(0.26458333)"
            d="m -1560.5488,587.5957 c -13.1347,-0.36653 -31.9336,6.59494 -31.9336,12.29102 0,1.29025 -2.6653,2.34375 -5.9238,2.34375 -3.9395,0 -7.5867,3.80467 -10.8887,11.37109 -2.729,6.25508 -6.9689,15.13566 -9.4219,19.73633 -4.6581,8.7292 -3.0886,34.00472 2.3203,37.35156 1.4752,0.9106 0.2376,9.22168 2.6836,17.69727 3.3707,11.68377 1.6465,17.93747 6.0664,23.03125 8.6298,9.95921 15.8308,33.14524 6.8145,46.90234 -7.0257,10.71716 -8.0708,11.48703 -21.4707,12.59375 -2.3059,2.31152 -13.9122,4.76294 -19.6602,7.14453 -1.4458,0.60238 -14.8727,8.48945 -20.293,9.00782 l -4.5058,1.32617 v 50.41015 h 116.6308 96.3692 v -56.45507 c -2.947,-0.89091 -5.5799,-2.04142 -11.2344,-2.90235 -13.603,-2.05939 -37.1934,-8.74192 -47.084,-19.05273 -3.7964,-3.9507 -5.3379,-10.45067 -5.3379,-22.96094 0,-14.65372 4.9591,-22.27423 11.0391,-27.49414 6.4723,-5.56169 7.4797,-9.67997 9.4551,-38.72266 1.9473,-28.45145 1.6114,-32.73698 -2.6895,-34.38867 -2.7037,-1.03393 -4.916,-4.27793 -4.916,-7.21289 0,-2.93631 -2.7322,-8.80238 -6.0664,-13.04297 -3.3342,-4.24478 -6.0664,-9.0812 -6.0664,-10.7539 0,-4.80941 -26.4905,-16.37274 -41.3418,-18.04688 -0.8181,-0.0921 -1.6693,-0.14939 -2.5449,-0.17383 z"
            style="fill:#bebebe;fill-opacity:1;stroke-width:1.40092957" inkscape:connector-curvature="0" />
      </g>
   </g>
</svg>