<?xml version="1.0" encoding="UTF-8" standalone="no"?>
<!-- Created with Inkscape (http://www.inkscape.org/) -->

<svg
   width="165.62917mm"
   height="92.604164mm"
   viewBox="0 0 165.62917 92.604164"
   version="1.1"
   id="svg1"
   xml:space="preserve"
   xmlns="http://www.w3.org/2000/svg"
   xmlns:svg="http://www.w3.org/2000/svg"><defs
     id="defs1" /><g
     id="layer1"
     transform="translate(0.13934466,0.67040902)"
     style="display:inline"><path
       style="display:inline;opacity:1;fill:#ffffff;stroke-width:0.223308;stroke-linejoin:round;stroke-miterlimit:10"
       d="m -0.25319805,24.637573 c 0.4391488,-0.01626 0.79697373,-0.03253 1.00841574,0.195178 0.21144201,0.227706 0.0325295,0.243971 0.42288401,0 0.3903545,-0.243972 0.780709,-0.666856 0.9433567,-0.650591 0.1626477,0.01626 0.5530023,0.03253 0.9596214,0.227707 0.4066193,0.195177 0.9758862,0.34156 1.0409454,0.146382 0.065059,-0.195177 1.0246804,-0.959621 1.2523872,-0.943356 0.2277068,0.01626 0.6668556,0.113853 1.0084157,0.243971 0.3415601,0.130119 0.4228841,0.178913 0.6017966,-0.01626 0.1789123,-0.195177 0.4554136,-0.471678 0.6831203,-0.34156 0.2277068,0.130118 1.0409452,0.699385 1.3499759,0.666856 0.3090307,-0.03253 1.8053901,-0.252104 1.8460511,-0.37409 0.04066,-0.121986 1.593948,-0.34156 1.97617,-0.292766 0.382222,0.04879 1.971922,-0.546539 2.006424,-0.650048 0.0345,-0.103508 0.218518,-0.218518 0.609549,-0.103508 0.391032,0.115009 3.933318,2.024163 4.335851,2.001161 0.402532,-0.023 0.471538,-0.460037 1.104089,-0.310525 0.632551,0.149512 1.288104,0.138012 1.644633,-0.09201 0.356529,-0.230019 1.522145,-0.975191 1.863705,-0.788146 0.341561,0.187045 1.04603,-0.15493 1.115036,-0.338945 0.06901,-0.184015 1.092587,-0.391032 1.679136,-0.023 0.586547,0.36803 1.035082,-0.425535 1.299605,-0.632551 0.264519,-0.207017 1.49512,0.391032 2.426694,0.575046 0.931577,0.184015 2.473947,-0.16608 2.880567,-0.466978 0.406619,-0.300898 0.780708,-0.260236 1.089739,-0.235839 0.309031,0.0244 2.049362,-0.731915 2.512907,-1.187328 0.463547,-0.455414 0.520472,-0.23584 0.674989,-0.260237 0.154514,-0.0244 0.357825,-0.585532 0.512339,-0.520473 0.154517,0.06506 1.423167,0.805107 1.764729,1.106005 0.341558,0.300898 0.740047,0.0081 0.984017,0.01626 0.243972,0.0081 0.431017,0.536737 0.951489,0.382222 0.520472,-0.154515 0.455414,-0.463546 0.788842,-0.479811 0.333428,-0.01626 1.969275,-0.688514 2.141789,-0.866779 0.172513,-0.178264 0.287522,-0.37378 0.655553,-0.368029 0.36803,0.0057 1.196096,-0.0058 1.328356,-0.109259 0.132263,-0.103509 0.168201,-0.01404 0.664276,-0.656499 0.496075,-0.642459 0.479811,-0.561135 0.512342,-0.54487 0.03253,0.01626 5.275405,4.674649 7.31107,4.68615 2.035664,0.0115 2.19162,-0.04663 2.634837,0.148553 0.443214,0.195177 1.764726,0.126052 2.374657,-0.142317 0.609928,-0.268369 1.943639,-0.300898 2.610495,-0.910827 0.666853,-0.609929 0.927092,-0.243972 1.325578,0.08946 0.398487,0.333428 1.543281,-0.277453 2.267837,-0.587978 0.724559,-0.310525 0.885573,-0.345028 1.97816,-0.103508 1.092589,0.241519 1.056317,0.203543 1.934614,-0.528372 0.878298,-0.731914 0.618062,-0.650591 1.203595,-0.325295 0.585531,0.325295 1.187329,0.764444 1.691534,0.650591 0.504209,-0.113854 4.456549,2.390921 5.595083,2.42345 1.138534,0.03253 1.39813,-0.380226 2.295202,-0.67925 0.897073,-0.299024 0.943076,0.529043 2.300187,-0.138011 1.357109,-0.667054 1.334106,-1.150093 1.725139,-0.920074 0.391031,0.230018 1.795592,1.932513 2.543771,2.062631 0.74818,0.130118 2.244539,-0.71565 2.895129,-0.683121 0.650591,0.03253 2.277067,1.301182 2.96019,1.138534 0.683119,-0.162647 0.847656,-0.516883 1.664223,-0.344369 0.816565,0.172514 1.713638,-0.06901 2.323188,-0.368029 0.609549,-0.299024 2.081663,-1.000581 3.047743,-0.701557 0.96608,0.299024 3.10593,0.958542 3.64267,0.869086 0.53673,-0.08946 0.91896,-0.455414 1.91924,-0.300899 1.00028,0.154516 1.35015,0.604908 2.17822,0.501399 0.82807,-0.103508 1.2881,-0.575046 1.95516,-0.0345 0.66705,0.540543 0.94936,1.013197 2.26681,0.736696 1.31744,-0.276501 2.34212,0.390357 3.07404,-0.03253 0.73191,-0.422884 1.22618,-0.658164 3.18134,-0.35914 1.95515,0.299025 4.66937,0.690056 6.2105,0.621051 1.54112,-0.06901 1.10409,-0.230019 2.82923,0.391032 1.72513,0.621052 -0.0388,0.908476 4.25514,0.778357 4.2939,-0.130117 1.82165,0.68312 5.13967,0.357825 3.31801,-0.325294 5.66014,-1.333712 6.08302,-1.008414 0.42289,0.325294 1.65855,0.389773 2.06108,0.171257 0.40253,-0.218517 0.56355,0.09201 0.92008,0.310525 0.35653,0.218517 0.59709,-0.04264 2.95548,-0.416724 2.35839,-0.374089 1.37438,-0.333428 2.68369,-0.08132 1.30931,0.252106 2.73248,-0.01627 4.45655,-0.2765 1.72406,-0.260238 2.88699,-0.04066 4.20444,0.642459 1.31745,0.683119 1.49134,1.041389 2.25059,0.603041 0.75924,-0.438349 0.78279,0.242726 1.21381,0.275256 0.43101,0.03253 0.29276,0.146384 0.65059,0 0.35782,-0.146383 0.38222,-0.471678 0.39848,0.284634 0.0163,0.756311 0.553,65.270522 0.553,65.270522 L -1.1802899,92.233958 Z"
       id="path1" /><path
       style="fill:#000000;stroke-width:0.223308;stroke-linejoin:round;stroke-miterlimit:10"
       d="m 82.079068,30.200124 c 1.886715,-0.601795 3.968604,-1.886712 4.082457,-2.423449 0.113853,-0.536739 0.162647,-1.284917 -0.146383,-1.463831 -0.309031,-0.178911 -0.06506,0.40662 -0.130117,-0.666855 -0.06506,-1.073475 -0.162647,-1.02468 -0.585533,-1.626477 -0.422884,-0.601796 -0.390354,-0.829503 -0.113853,-1.203593 0.276502,-0.37409 -0.24397,-0.71565 0.943358,0.325295 1.187329,1.040946 1.506749,1.559427 2.426825,1.605431 0.920075,0.046 1.12709,0.09201 1.748141,0.552044 0.621049,0.460037 0.230019,0.759062 0.920073,0.253021 0.690057,-0.506041 -0.230018,-1.633132 1.610133,-0.460038 1.840148,1.173095 1.817145,1.794146 2.185175,1.173095 0.36803,-0.62105 0.673338,-0.48866 1.372722,-0.06578 0.699386,0.422884 0.764444,0.374089 1.171064,-0.09759 0.40662,-0.471678 0.211442,-0.894562 1.39877,-0.04879 1.18733,0.84577 1.4313,1.1548 2.45598,0.520472 1.02468,-0.634325 1.48009,-0.666856 2.29333,-0.03253 0.81324,0.634326 0.55301,0.927092 0.9271,0.634326 0.37408,-0.292767 0.2277,-0.601798 0.52047,-0.309031 0.29276,0.292767 -0.11386,0.780709 0.43915,0.357825 0.553,-0.422883 0.45541,-0.593664 0.68312,-0.333428 0.2277,0.260237 -0.0488,0.927092 0.47981,0.260237 0.5286,-0.666856 0.31716,-0.853901 0.96775,-0.252103 0.65059,0.601794 1.52889,1.057208 2.24454,1.154797 0.71565,0.09759 0.8295,0.585531 1.80539,0.2765 0.97589,-0.30903 2.99272,-0.569266 0.91083,0.08132 -2.0819,0.65059 -3.56199,0.992151 -4.18005,1.008415 -0.61806,0.01627 -1.59395,0.146383 -0.69939,-0.195175 0.89457,-0.341562 2.11442,0.341558 1.18733,-0.43915 -0.92709,-0.780709 -0.73191,-1.219859 -1.30118,-0.520473 -0.56927,0.699386 -0.29277,1.008414 -1.12227,1.106003 -0.8295,0.09759 -0.92709,0.13012 -1.51262,0.01627 -0.58553,-0.113855 -2.53731,0.01627 -1.23612,-0.390355 1.30118,-0.40662 1.34997,0.520472 2.04936,-0.292767 0.69938,-0.813237 1.00841,-0.796973 0.26023,-0.845767 -0.74818,-0.04879 -0.7807,-0.40662 -1.52889,0.09759 -0.74817,0.504208 -0.68312,1.252386 -1.62647,1.252386 -0.94336,0 -2.06563,0.06506 -0.92709,-0.130116 1.13853,-0.195178 0.86203,0.650589 1.20359,-0.455414 0.34156,-1.106006 0.73191,-1.040945 0.16265,-1.431301 -0.56927,-0.390353 -1.04095,0.71565 -1.38251,1.008417 -0.34156,0.292764 -0.40662,0.455414 -1.00841,0.487942 -0.6018,0.03253 4.81437,0.390356 4.70051,0.943356 -0.11385,0.553003 0.81324,0.731917 -0.71565,1.073475 -1.52889,0.341562 -6.289747,1.149887 -8.152898,1.126885 -1.863151,-0.02299 -3.289266,-0.02299 -5.543447,0.690057 -2.254181,0.713057 -5.405437,1.679135 -10.25883,1.679135 -4.853392,0 -8.326673,0 -4.623374,-0.690057 3.703302,-0.690054 4.117335,-0.598048 5.819471,-1.265102 1.702139,-0.667052 3.358271,-0.828067 3.404275,-1.63313 0.046,-0.805066 0.253021,-1.058088 -0.414034,-1.104091 -0.667054,-0.046 0.414034,-0.552045 -1.380111,0.115009 -1.794145,0.667055 -1.784374,0.577086 -1.784374,0.577086 z"
       id="path2" /><path
       style="fill:#000000;stroke-width:0.223308;stroke-linejoin:round;stroke-miterlimit:10"
       d="m 85.299492,22.555683 c -0.780709,0.536737 -0.162648,0.764444 -1.171062,0.959621 -1.008417,0.195177 -1.171065,0.601797 -1.659006,0.34156 -0.487945,-0.260236 0.422883,-0.71565 -0.650592,-0.276501 -1.073476,0.439149 -1.724065,0.764444 -3.301749,1.480094 -1.577681,0.71565 -1.968037,1.008415 -3.236688,1.39877 -1.268653,0.390356 -0.146383,0.422884 -2.163214,0.715651 -2.016832,0.292766 -2.992718,0.683119 -1.008417,-0.195178 1.984303,-0.878298 1.919242,-1.154798 1.935509,-1.333711 0.01627,-0.178913 0.878297,-0.731915 -0.357825,0.01626 -1.236123,0.74818 -0.178914,0.74818 -1.756596,0.927094 -1.577684,0.178911 -3.448132,0.731914 -4.586665,0.862031 -1.138534,0.130119 -4.424019,1.4313 -1.12227,0.04879 3.301748,-1.382506 2.488509,-0.731914 4.147518,-1.691536 1.659006,-0.959621 0.910826,-0.666856 2.586098,-1.333711 1.675271,-0.666856 1.837918,-0.325296 1.77286,-0.927092 -0.06506,-0.601797 0.878297,-0.211442 -0.195178,-0.878298 -1.073476,-0.666855 -1.512623,-0.666855 -1.12227,-0.764444 0.390355,-0.09759 -2.146948,-1.36624 0.862033,0.03253 3.008982,1.39877 3.252955,1.870448 4.049927,2.179479 0.796975,0.309031 -1.09787,1.081607 1.447565,0.146383 2.545437,-0.935225 2.683687,-1.097872 2.724351,-0.975886 0.04066,0.121985 -0.243973,0.0081 -0.105722,0.252103 0.13825,0.243972 0.09523,0.137358 0.256246,0.206363 0.161012,0.06901 0.322024,-0.0115 0.816565,-0.138011 0.494541,-0.12651 0.75906,-0.06901 0.954577,-0.333527 0.195516,-0.264521 0.884005,-0.718843 0.884005,-0.718843 z"
       id="path3" /><path
       style="fill:#000000;stroke-width:0.223308;stroke-linejoin:round;stroke-miterlimit:10"
       d="m 71.65335,20.94547 c 0.959622,0.325296 1.236122,0.390355 1.333711,0.585532 0.09759,0.195177 0.536739,0.04879 0.04879,0.487943 -0.487942,0.439149 -0.780709,0.455414 -1.593948,1.106005 -0.813237,0.65059 -1.447565,1.171063 -2.455979,1.577682 -1.008417,0.40662 -0.780709,0.569267 -1.642742,0.71565 -0.862034,0.146383 -0.878298,0.390354 -0.04879,-0.276501 0.829503,-0.666855 1.772859,-1.138534 0.699387,-0.764444 -1.073476,0.37409 -2.553571,1.171063 -1.333712,0.471678 1.219856,-0.699385 3.301748,-1.528888 1.626476,-1.089739 -1.675271,0.439149 -1.837918,0.30903 -2.033096,0.601796 -0.195178,0.292766 -0.2765,0.536738 -0.471678,0.553002 -0.195178,0.01626 -0.748181,0.731915 -0.243972,-0.03253 0.504209,-0.764444 1.80539,-0.796974 -0.260236,-0.390355 -2.065626,0.40662 -2.732482,0.650591 -4.049927,0.650591 -1.317448,0 -0.50406,0.835463 1.002562,0.570942 1.506619,-0.264522 3.864311,-1.081088 2.380692,-0.391032 -1.48362,0.690055 -1.97816,0.770562 -2.541707,0.87407 -0.563544,0.10351 1.276604,0.138012 3.001743,-0.184015 1.725139,-0.322025 4.485362,-1.771142 2.139172,-0.230018 -2.346187,1.541126 -2.622211,2.323189 -3.634293,2.71422 -1.012081,0.39103 -1.288103,0.460036 -2.829229,0.897072 -1.541124,0.437036 -6.647537,1.357109 -10.419842,1.771142 -3.772305,0.414036 -2.024163,0.414036 -5.474441,0.598048 -3.45028,0.184015 -3.542286,0.506042 -4.32435,0.506042 -0.782063,0 -3.634293,0.644052 0.598049,-0.598048 4.232341,-1.2421 5.382434,-0.874069 6.210501,-1.61013 0.828066,-0.73606 3.128253,-1.47212 0.828066,-0.874072 -2.300184,0.598048 -0.506039,0.782063 -3.95632,1.288106 -3.450278,0.506039 -4.002323,0.690054 -5.014404,0.414033 -1.012082,-0.276022 -6.532528,-0.736061 0,-0.966079 6.532528,-0.230018 6.440522,0 8.556691,-1.288102 2.116172,-1.288106 1.886154,-1.196097 2.990241,-2.208179 1.104091,-1.012083 1.426118,-0.644053 0.690057,-1.564127 -0.73606,-0.920075 -0.414033,-1.702138 -1.518123,-0.874071 -1.104088,0.828067 -2.331207,2.992117 -4.250452,3.154764 -1.919243,0.162648 -1.756595,-0.520472 -3.383071,-0.130117 -1.626478,0.390353 0.813239,0.487942 -2.960187,1.138534 -3.773427,0.650589 -4.716786,0.357825 -5.660142,0.748178 -0.943356,0.390356 -2.342126,0.227709 -0.845767,0.715651 1.496359,0.487944 0.227706,1.203592 3.155366,0.878297 2.927656,-0.325294 5.399902,-0.520472 3.057776,0.422884 -2.342126,0.943358 -3.090307,1.366242 -5.920378,1.496359 -2.830068,0.130119 -2.374656,0.06506 -4.391488,0.130119 -2.016831,0.06506 -4.781841,0.487942 -1.138533,-0.357825 3.643309,-0.84577 4.586665,-0.650592 4.489077,-1.203592 -0.09759,-0.553003 1.073475,-1.138534 -0.813237,-0.975887 -1.886715,0.162648 -1.919245,0.09759 -2.602365,0 -0.68312,-0.09759 -0.536736,-0.796975 0.422884,-1.349975 0.959622,-0.553003 1.642742,0.325294 1.122269,-0.650592 -0.520472,-0.975887 -1.577681,-1.39877 0.439151,-1.333712 2.016831,0.06506 1.854181,0.845767 2.895129,-0.01627 1.040945,-0.862033 2.79754,-1.886713 0.975883,-1.138534 -1.821653,0.748179 -1.284914,0.504209 -2.260801,1.171062 -0.975886,0.666856 -0.731914,1.154801 -1.301181,0.553003 -0.569267,-0.601797 -1.724067,-0.374089 -0.748181,-1.236123 0.975887,-0.862032 0.422884,-0.683119 2.114421,-1.951771 1.691537,-1.268652 1.382506,-1.512624 1.902978,-1.593948 0.520473,-0.08132 0.487942,-0.09759 0.829504,-0.09759 0.341558,0 0.203308,0.268368 1.244253,-0.398487 1.040947,-0.666856 0.70752,-0.398487 1.1548,-0.740047 0.447281,-0.34156 0.317162,-0.422884 0.512339,-0.34156 0.195178,0.08132 0.252106,0.09759 0.40662,-0.20331 0.154517,-0.300898 0.06912,-0.548936 0.252103,-0.321229 0.182981,0.227706 1.260919,0.871487 1.594445,1.101506 0.333529,0.230019 0.414034,0.391032 0.724559,0.25302 0.310526,-0.138011 0.149513,-0.506041 0.575048,-0.12651 0.425535,0.379531 0.39103,0.655553 0.908571,0.310525 0.517544,-0.345028 0.552046,-0.37953 1.161595,-0.609549 0.60955,-0.230019 0.667055,-0.24152 1.035085,-0.310525 0.36803,-0.06901 0.75906,-0.24152 1.035081,-0.575047 0.276024,-0.333526 0.01151,-0.322025 0.58655,-0.276022 0.575045,0.046 0.736057,0.36803 1.012081,0.046 0.276022,-0.322026 -0.01151,0.069 0.529043,-0.62105 0.540543,-0.690056 0.279643,-0.985543 0.995293,-0.221099 0.715648,0.764444 0.08946,0.918959 1.23612,1.39877 1.146668,0.479811 2.146951,1.797257 3.187896,2.073758 1.040945,0.276502 0.943356,0.553002 1.821654,0.699385 0.878297,0.146383 0.487944,0.260237 1.496359,0.276502 1.008417,0.01626 1.138534,0.06506 1.610214,-0.01626 0.471678,-0.08132 0.764442,-0.292766 0.634326,-0.01626 -0.13012,0.276501 -1.512623,0.569267 0.130116,0.276501 1.642743,-0.292766 1.854184,-0.471679 2.586099,-0.650591 0.731917,-0.178913 0.699386,0.04879 1.268653,-0.260236 0.569267,-0.309031 0.227706,-0.146383 0.699384,-0.40662 0.47168,-0.260236 0.813239,-0.894562 0.764444,-0.292765 -0.04879,0.601796 -0.162647,0.845767 0.276503,0.813238 0.439148,-0.03253 1.106003,-0.276501 1.480093,-0.439149 0.374089,-0.162647 0.284633,-0.162647 1.040944,-0.496075 0.756315,-0.333428 1.30106,-0.473407 1.680591,-0.300893 0.379532,0.172514 0.368031,0.230019 0.805064,0.218518 0.437036,-0.0115 0.34503,0.207017 0.828069,-0.103508 0.483039,-0.310526 1.138592,-0.851069 1.219097,-1.023583 0.08051,-0.172514 0.118904,-0.132378 0.118904,-0.132378 z"
       id="path4" /><path
       style="fill:#000000;stroke-width:0.223308;stroke-linejoin:round;stroke-miterlimit:10"
       d="m 57.480311,32.935307 c 3.22026,-1.288106 4.462359,-1.380112 5.520447,-2.231181 1.058084,-0.85107 0.552042,-1.840148 1.61013,-2.024163 1.058084,-0.184015 -0.09201,-0.552046 2.047165,-0.115009 2.139172,0.437036 4.600372,0.276021 7.19958,-0.230019 2.599211,-0.506042 6.187501,-1.426117 3.08225,-0.414033 -3.10525,1.012082 -3.588289,1.012082 -4.830389,1.771142 -1.242102,0.759061 -7.475606,1.081088 -2.208181,1.127091 5.267428,0.046 8.349676,-0.345027 5.451441,0.345027 -2.898233,0.690057 -5.267426,0.989081 -8.165658,1.449118 -2.898236,0.460039 -9.131739,1.518123 -11.01789,1.748141 -1.886154,0.230019 -1.97816,0.36803 -2.645215,0.713058 -0.667054,0.345027 0.759061,0.483039 -1.196096,0.345027 -1.955157,-0.138009 -3.611293,0.391033 -1.771145,-0.644051 1.840151,-1.035085 2.185178,-1.541124 2.185178,-1.541124 0,0 -0.805066,0.345027 0.552045,0.322024 1.357109,-0.02299 2.599209,-0.299024 3.128254,-0.437033 0.529042,-0.138012 1.058084,-0.184015 1.058084,-0.184015 z"
       id="path5" /><path
       style="fill:#000000;stroke-width:0.223308;stroke-linejoin:round;stroke-miterlimit:10"
       d="m -0.01735888,24.702632 c 0.8620328,0.187045 0.69125273,0.333428 0.87829759,0.333428 0.18704489,0 -0.30089824,0.357825 0.41475169,-0.130118 0.7156498,-0.487943 0.7644441,-0.626194 0.8620328,-0.723782 0.097589,-0.09759 -0.6180613,-0.439149 0.3822221,0.01626 1.0002833,0.455413 0.4960755,0.447281 1.2035931,0.51234 0.7075175,0.06506 -0.2683688,0.325295 0.6749877,-0.268369 0.9433568,-0.593664 0.6912528,-1.097872 1.2198578,-0.756311 0.5286052,0.34156 1.9029783,0.406619 0.8051062,0.699385 -1.0978719,0.292766 -1.2523872,0.365957 -2.3177296,0.65059 -1.0653427,0.284634 -1.7728601,0.561135 -1.8216544,0.666856 -0.048794,0.105721 -1.2117254,0.406621 0.3252954,0.203309 1.5370207,-0.203309 2.9195262,-0.504207 3.3180131,-0.910827 0.3984868,-0.406619 0.951489,-0.796973 1.0246804,-0.902694 0.073192,-0.105721 0.3659574,-0.74818 0.5286052,-0.536738 0.1626476,0.211442 0.079827,0.58113 0.1948365,0.903156 0.1150094,0.322026 0.011501,0.327776 0.3507785,0.408283 0.3392774,0.08051 0.7718314,-0.481935 1.2028477,-0.595789 0.4310166,-0.113853 0.7481795,-0.447281 0.3903546,0.06506 -0.3578251,0.512341 -1.4963589,1.024681 -0.3903546,0.91896 C 10.335167,25.14991 9.3834248,24.298105 9.9699722,24.125591 10.55652,23.95308 10.18849,23.987583 11.246575,23.838071 12.304661,23.688558 8.7623747,24.321109 8.4978533,24.378614 8.2333318,24.436119 8.2448328,24.746644 7.865302,24.137095 7.4857715,23.527545 6.6922072,22.964 7.6007808,23.412536 c 0.9085734,0.448536 0.483039,1.000581 1.6561337,0.713058 1.1730945,-0.287523 1.7596425,-0.540544 1.9551585,-0.517542 0.195515,0.023 -0.0345,0.402532 1.414614,0.0115 1.449117,-0.391031 1.380111,-0.115009 1.955158,-0.598048 0.575046,-0.483039 -0.62105,-1.2421 0.966078,-0.345028 1.587128,0.897073 1.932156,1.449117 3.197258,1.817147 1.265102,0.36803 2.369192,0.506041 3.726301,-0.138011 1.35711,-0.644052 0.73606,-0.644052 1.61013,-0.713058 0.874071,-0.06901 1.196097,-0.046 1.426115,-0.299024 0.230019,-0.253021 0.588002,-0.560142 1.254859,-0.218582 0.666856,0.341561 0.569267,1.349976 1.040945,0.325296 0.471678,-1.024681 0.520472,-1.610213 0.780709,-1.040945 0.260236,0.569267 -0.422884,1.968037 -1.284918,2.08189 -0.862033,0.113854 -2.602363,0.536737 -3.252953,0.618061 -0.650591,0.08132 -0.813239,0.276502 -0.08132,-0.162647 0.731914,-0.439149 1.203593,-0.683121 0.357825,-0.520473 -0.845769,0.162648 -2.016832,0.195177 -1.219858,0.422884 0.796974,0.227707 3.561985,-0.292766 0.748179,0.37409 -2.813805,0.666856 -2.277068,0.504208 -3.643308,0.748181 -1.366241,0.243969 -2.537304,0.601794 -1.415035,0.731914 1.122269,0.130117 1.984302,0.195178 3.692102,-0.325298 1.707801,-0.520472 2.797541,-0.862031 3.448132,-1.268651 0.65059,-0.406619 1.073474,-0.585531 1.154799,-0.553002 0.08132,0.03253 1.488225,0.09759 1.691537,-0.471678 0.203308,-0.569267 -0.203312,-1.480094 -0.276503,-1.634609 -0.07319,-0.154516 -0.349692,-0.512341 0.05693,-0.243972 0.40662,0.268369 0.40662,0.406619 1.024681,0.601796 0.618062,0.195178 0.65059,0.382223 1.236123,0.382223 0.585531,0 1.650873,-0.496076 0.886428,0.04066 -0.764442,0.536737 -2.374656,1.317446 -1.886712,1.626476 0.487942,0.309031 1.317445,0.520473 0.439148,0.870166 -0.878298,0.349692 0.130119,1.081606 -0.520473,1.268651 -0.650589,0.187047 0.05693,-0.121984 -1.065342,0.349694 -1.12227,0.471678 -2.130885,1.012278 -3.476493,1.391809 -1.345608,0.379532 -1.253601,0.529042 -2.369191,0.598048 -1.11559,0.06901 -0.678555,0.402532 0.253021,0.356529 0.931575,-0.046 1.196096,0.08051 2.587709,-0.230018 1.391612,-0.310526 2.162174,-0.828066 1.851649,-0.391033 -0.310526,0.437036 -1.426115,1.023583 -2.323188,1.196097 -0.897072,0.172516 -1.703836,1.331806 -3.997168,1.933601 -2.293333,0.601797 -8.717917,1.577684 -12.3937552,1.577684 -3.6758379,0 -3.4156017,0 -5.2372558,0 -1.8216543,0 -4.6191948,-0.260236 -2.6999519,0.227706 1.919243,0.487944 3.1553654,0.58553 1.0734748,0.683119 -2.08189056,0.09759 -2.30959734,2.342129 -2.43971549,0.09759 C -0.62728776,32.542252 -2.1887057,32.347074 0.15342121,32.542252 2.4955481,32.73743 1.64978,32.57478 5.3581477,32.282016 9.0665153,31.989249 11.53876,31.533835 12.872471,31.078421 c 1.333712,-0.455411 2.342127,-0.68312 2.992718,-1.171062 0.650591,-0.487944 0.845768,-0.910828 1.561418,-0.553003 0.71565,0.357826 0.130118,0.390356 0.845768,1.008417 0.71565,0.618062 1.789125,0.357826 2.732481,0.09759 0.943357,-0.260236 1.984302,-0.878298 0.585532,-0.845767 -1.39877,0.03253 -2.504774,0.390355 -3.415602,0.553003 -0.910827,0.162647 -1.463829,-0.357825 -1.431299,-0.878298 0.03253,-0.520472 -1.46383,0.06506 -1.593948,0.227706 -0.130118,0.162647 -10.4419822,1.528889 -12.2311068,1.821653 -1.7891248,0.292767 -2.14694973,0.422887 -3.15536548,0.422887 -1.00841572,0 -1.62647702,-0.09759 -0.0975886,-0.16265 1.52888838,-0.06506 4.48907658,-0.553001 2.92765868,-0.585531 -1.561418,-0.03253 -4.6842539,0.06506 -2.99271776,-0.130117 1.69153606,-0.195178 1.07347483,-0.292767 2.96018826,-0.357825 1.8867133,-0.06506 3.7408969,-0.06506 3.2854834,-0.487945 -0.4554136,-0.422883 2.1144203,-1.366239 -1.6264769,-0.553 -3.74089718,0.813236 -3.70836764,0.943356 -4.39148798,1.008414 -0.68312035,0.06506 -1.10600442,-0.455414 -0.42288401,-0.650589 0.68312033,-0.195178 -2.60236331,0 2.24453819,-0.292767 4.8469015,-0.292766 4.1312517,-0.585531 6.1155537,-0.585531 1.9843019,0 2.7975403,-0.357825 2.5373043,0.195176 -0.260237,0.553003 -1.6915365,0.975886 0.455413,0.878297 2.14695,-0.09759 3.415602,-0.553 3.610779,-0.748178 0.195177,-0.195178 1.691536,-0.650592 -0.520472,-0.520472 -2.212009,0.130116 -4.0987224,0.292764 -4.0987224,0.292764 0,0 -1.8867133,0.03253 1.0409454,-0.455412 2.927659,-0.487944 3.480661,-0.357825 4.19631,-0.975886 0.71565,-0.618062 0.910828,-0.618062 1.073475,-0.84577 0.162648,-0.227706 6.896263,-1.886713 -0.748179,-0.260236 -7.644442,1.626478 -8.1974442,1.789126 -9.4986258,1.984303 -1.3011817,0.195176 -0.4554135,0.162648 -2.1794793,0.260237 -1.7240655,0.09759 -1.6264769,0.227705 -2.86259941,0.227705 -1.23612254,0 -1.88671339,0.780709 -1.33371114,-0.748178 0.55300217,-1.528889 0.52047263,-1.951773 1.39877023,-1.268653 0.87829752,0.68312 -0.26023633,1.463828 1.26865202,1.496359 1.5288883,0.03253 2.3746565,0.325294 2.7650108,-0.06506 0.3903546,-0.390355 1.6590068,-0.422883 0.3252954,-0.422883 -1.3337111,0 -2.2445382,-0.455414 -3.1553653,-0.03253 -0.9108271,0.422884 -1.69153604,0.910829 -1.17106338,0.292767 0.52047258,-0.618061 1.59394748,-1.333711 2.01683138,-1.008417 0.422884,0.325295 -1.0084157,1.171064 1.6590068,0.487945 2.6674222,-0.683123 5.009549,-0.813239 5.9529057,-1.39877 0.943357,-0.585534 3.220425,-1.593949 1.821654,-1.398772 -1.39877,0.195177 -4.0987218,0.910827 -5.7577283,1.366241 -1.6590066,0.455414 -1.9517725,0.68312 -3.2854836,0.975887 -1.3337112,0.292764 0.097589,1.073475 -1.7565952,0.162647 -1.85418378,-0.910828 -1.75659516,-1.203592 -1.59394746,-1.593948 0.1626477,-0.390355 0.0569267,-1.138534 0.0569267,-1.138534 z"
       id="path6" /><path
       style="fill:#000000;stroke-width:0.223308;stroke-linejoin:round;stroke-miterlimit:10"
       d="m 81.60926,37.052639 c 3.036245,-1.196097 0.736061,-1.702136 4.370354,-1.334109 3.634292,0.36803 5.336431,0.276024 8.970724,-0.598048 3.634295,-0.87407 6.302512,-1.472118 7.774632,-2.116169 1.47212,-0.644054 0.96607,0.874069 2.07016,-1.012082 1.10409,-1.886154 1.307,-2.019813 2.54313,-1.954755 1.23612,0.06506 0.81515,1.264698 2.33327,1.080683 1.51812,-0.184015 0.36803,0 3.17425,-0.36803 2.80623,-0.36803 2.68992,-0.127119 4.70675,-0.84277 2.01683,-0.71565 3.83849,-0.455414 1.82166,-0.845769 -2.01684,-0.390353 -3.83849,0 -2.01684,-0.390353 1.82166,-0.390356 1.92896,0.238744 3.40107,0.169738 1.47212,-0.06901 -0.023,0.828066 2.04717,-0.161012 2.07017,-0.989082 2.27718,-1.518124 2.87523,-1.472121 0.59805,0.04601 1.10409,-0.046 0.96608,0.322027 -0.13801,0.36803 0.41403,-0.184015 -1.47212,0.690057 -1.88615,0.87407 -2.76022,1.426115 -1.38011,1.104088 1.38011,-0.322024 0.23002,0.414033 1.84015,-0.506039 1.61013,-0.920076 0.87407,-1.426118 1.79414,-0.966079 0.92008,0.460037 0.55205,1.196097 2.76023,1.196097 2.20817,0 1.65613,0.09201 3.22026,0.506039 1.56412,0.414033 2.85223,0.966079 0,1.012082 -2.85223,0.04601 -2.71422,0.04601 -4.8764,0.138012 -2.16217,0.09201 2.30019,-0.50604 -3.08225,0.184015 -5.38243,0.690057 -3.12825,0.644051 -6.11849,0.73606 -2.99024,0.09201 -9.15474,-0.414033 -1.79415,0.322024 7.3606,0.736061 7.49861,0.644054 9.75279,0.736061 2.25418,0.09201 1.38011,0.552045 4.37035,0.782063 2.99025,0.230018 10.71887,-0.36803 4.46237,0.644051 -6.25651,1.012082 -5.47445,0 -9.10874,1.012082 -3.6343,1.012081 -2.25418,1.150093 -5.61246,1.334108 -3.35826,0.184015 -3.26626,0.138012 -3.63429,0.184015 -0.36803,0.046 -2.62221,-0.460036 -0.59805,0.322027 2.02417,0.782064 -0.046,0.87407 3.17426,0.828067 3.22026,-0.046 2.39219,1.196096 4.50836,-0.230018 2.11618,-1.426118 1.61013,-1.150094 2.30019,-1.564127 0.69006,-0.414033 -0.092,-0.414033 1.61013,-0.276024 1.70214,0.138012 -1.2881,0.690057 2.80623,-0.046 4.09433,-0.73606 6.2105,-1.840148 4.00232,-0.690054 -2.20818,1.15009 0.55205,0.36803 -3.26626,1.748139 -3.81831,1.380111 -6.76255,0.828069 -4.14034,1.518123 2.62221,0.690057 0.96608,0.184015 3.6803,1.2421 2.71422,1.058087 1.84015,1.334108 3.08225,0.966078 1.2421,-0.36803 0.96608,0.138012 -2.11617,0.36803 -3.08225,0.230019 -4.00233,0.690058 -4.73839,-0.230018 -0.73606,-0.920075 1.51813,-1.518123 -2.16217,-0.552045 -3.6803,0.966078 0.69006,0.920075 -4.27834,1.196097 -4.96841,0.276024 -1.51813,0.276024 -5.84248,0.276024 -4.32435,0 -4.14033,0.598048 -4.9224,0 -0.78206,-0.598049 -2.66821,-0.644055 0.46004,-0.690058 3.12825,-0.046 0.55205,0.09201 4.27835,0.138012 3.7263,0.046 4.27834,0.828067 6.67054,-0.230018 2.39219,-1.058087 1.70213,-0.506042 2.66821,-1.242102 0.96608,-0.736058 2.11617,-1.518121 0.23002,-0.736058 -1.88615,0.782064 -1.79415,0.782064 -3.35827,0.87407 -1.56413,0.09201 -3.31227,0.644051 -4.83039,0.644051 -1.51812,0 -3.7263,-0.644051 -5.56645,-0.322024 -1.84015,0.322024 -0.82807,1.150091 -2.85223,0.828066 -2.02416,-0.322027 -2.07017,-0.36803 -2.57621,-0.598048 -0.50604,-0.230018 -0.46004,-0.460036 0.69006,-0.598048 1.15009,-0.138012 1.19609,-0.138012 1.10409,-0.828067 -0.092,-0.690057 -1.10409,-1.656135 0,-1.196096 1.10408,0.460036 1.47211,0.966078 2.62221,1.058084 1.15009,0.09201 1.05808,0.414034 1.33411,-0.138012 0.27602,-0.552042 -0.32203,-0.782063 1.2881,-0.322024 1.61013,0.460036 2.62221,1.840148 2.71422,0.552043 0.092,-1.288103 -0.92008,-1.472118 -0.92008,-0.966076 0,0.506039 0.73606,0.046 -1.10408,-0.230021 -1.84015,-0.276021 -1.79415,-0.644051 -2.30019,-0.184015 -0.50604,0.460039 0.78206,0.460039 -1.56413,0.322027 -2.34619,-0.138012 -2.43819,-0.138012 -2.80622,-0.322027 -0.36803,-0.184013 0.64405,-0.322024 -0.78207,-0.138009 -1.42611,0.184015 -3.17425,0.73606 -2.02416,0.046 1.15009,-0.690055 3.26626,-0.414034 1.10409,-0.920076 -2.16218,-0.506039 -1.15009,-0.920072 -2.57621,-0.368027 -1.42612,0.552042 -1.51812,1.426115 -4.416358,1.656133 -2.898232,0.230018 -2.714217,0.09201 -5.934479,0.230018 -3.22026,0.138012 -4.46236,0.87407 -1.288103,1.058085 3.174256,0.184015 3.634293,0.322027 5.428438,0.322027 1.794144,0 2.320107,-0.914834 3.621292,-0.914834 1.30118,0 1.106,-0.390353 2.60236,-0.130117 1.49636,0.260236 3.31801,-0.910828 1.82165,0.585531 -1.49635,1.496359 -2.14694,1.561417 -2.86259,1.951773 -0.71565,0.390353 -4.554139,0.71565 -0.91083,0.455414 3.64331,-0.260236 5.07461,-2.212009 4.22884,-0.650592 -0.84577,1.561417 2.08189,-0.130119 2.79754,0.71565 0.71565,0.845767 0.45541,-0.06506 1.4313,1.561418 0.97589,1.626478 6.89626,3.643309 0,2.212009 -6.89626,-1.431301 -5.26979,-2.016832 -8.5878,-2.212009 -3.318014,-0.195178 -6.050496,-0.260237 -7.676971,-0.585531 -1.626479,-0.325298 -2.08189,-0.455414 -4.163783,-0.780709 -2.081889,-0.325297 -2.79754,-0.585533 -4.033662,-0.585533 -1.236123,0 4.22884,0.09759 -2.08189,0.390355 -6.310731,0.292767 -4.424019,0.943356 -6.603497,1.040945 -2.179479,0.09759 -1.919243,0.09759 -3.122835,0.13012 -1.203592,0.03253 -0.381056,1.876517 -4.061354,0.496408 -3.680296,-1.380111 -1.656133,-0.828069 -3.680296,-1.380111 -2.024166,-0.552046 -1.840151,-0.276024 -2.530205,-0.82807 -0.690057,-0.552042 -2.576209,-0.690054 -0.598049,-0.920072 1.97816,-0.230018 1.104088,-0.230018 2.254182,-0.36803 1.150093,-0.138012 2.162175,0.230018 1.748141,-0.460037 -0.414033,-0.690057 -0.276021,-0.598048 -0.828066,-0.73606 -0.552045,-0.138012 -1.196097,-0.046 -0.552045,-0.644051 0.644051,-0.598049 -0.690055,-1.150094 1.150093,-0.460039 1.840148,0.690057 1.2421,1.196096 3.542287,1.150093 2.300184,-0.046 1.150093,0.322027 2.944238,-0.36803 1.794145,-0.690054 4.002323,-1.426115 4.002323,-1.426115 0,0 -0.874072,-0.138012 -2.484202,-0.138012 -1.61013,0 -4.140335,0 -0.920073,-0.414033 3.22026,-0.414033 1.288103,-0.782063 3.910314,-0.414033 2.622214,0.36803 4.048329,1.380112 4.370353,1.380112 0.322027,0 0.322027,0.184015 0.322027,0.184015 z"
       id="path8" /><path
       style="fill:#000000;stroke-width:0.223308;stroke-linejoin:round;stroke-miterlimit:10"
       d="m 46.922457,32.912304 c -3.588289,0.276024 -4.048326,0 -6.900558,0.414033 -2.852229,0.414033 -5.152416,1.288105 -3.128251,0.230018 2.024164,-1.058084 6.624535,-2.254181 1.97816,-1.058084 -4.646377,1.196096 -2.898235,2.34619 -6.67054,1.242099 -3.772304,-1.104088 -1.794144,-2.530202 -3.956319,-1.242099 -2.162175,1.288105 -1.2421,1.196096 -4.186339,1.47212 -2.944237,0.276021 -8.142657,-0.552045 -4.186338,0.736058 3.95632,1.288105 4.876394,1.242102 5.704461,1.058087 0.828068,-0.184015 -1.840149,0.276021 4.692379,-0.276024 6.532528,-0.552045 7.544609,-0.736058 10.810874,-0.644051 3.266263,0.09201 1.702136,1.058084 5.428438,0 3.726302,-1.058085 0.414033,-0.414034 5.336432,-1.472118 4.922398,-1.058088 13.019053,-3.312269 5.934479,-1.564127 -7.084573,1.748139 -9.338754,1.886151 -12.513011,2.024163 -3.174256,0.138012 -5.244425,0.322024 -2.852232,-0.046 2.392194,-0.36803 3.634296,-0.276024 4.508365,-0.874072 z"
       id="path9" /><path
       style="fill:#000000;stroke-width:0.223308;stroke-linejoin:round;stroke-miterlimit:10"
       d="m 109.64785,26.524286 c 1.72407,-0.292764 1.4313,-1.171063 2.60237,-0.422884 1.17106,0.748181 0.78071,1.106006 2.24453,0.878298 1.46383,-0.227706 2.04937,-0.390353 2.8626,-0.618061 0.81324,-0.227706 0.74818,-0.943357 1.23613,-0.227706 0.48794,0.71565 -0.45542,1.26865 0.65059,0.68312 1.106,-0.585531 0.0651,-1.171064 1.4313,-0.487942 1.36624,0.683119 1.4313,0.943356 2.27707,0.943356 0.84576,0 0.39035,0.162647 -0.65059,0.520472 -1.04095,0.357825 -4.09873,1.789123 -2.27707,0.585531 1.82165,-1.203592 0.74818,-0.71565 -0.3253,-0.455414 -1.07347,0.260236 0,-0.130117 -1.65901,0.520472 -1.659,0.650592 -1.33371,0.585534 -3.57824,0.975887 -2.24454,0.390356 -2.60237,0.553003 -3.57825,0.585533 -0.97589,0.03253 -0.29277,0.260237 1.46383,-0.325297 1.75659,-0.585531 1.91924,-0.715648 2.24453,-0.975886 0.3253,-0.260237 0.19518,-0.585531 0.16265,-0.780709 -0.0325,-0.195175 -0.13012,-0.227706 0.52048,-0.03253 0.65058,0.195178 0.74817,0.292764 1.659,-0.130119 0.91083,-0.422884 1.82166,-0.390353 0.74818,-0.422884 -1.07348,-0.03253 -0.84577,-0.422883 -2.43972,-0.03253 -1.59394,0.390355 -0.97588,0.260236 -1.91924,0.683122 -0.94335,0.422883 -2.04936,1.040945 -1.13853,0.422883 0.91082,-0.618061 1.75659,-0.292766 1.07347,-0.74818 -0.68312,-0.455412 -0.81324,-0.65059 -1.30118,0.162647 -0.48794,0.813239 0.71565,1.56142 -1.04094,0.878298 -1.7566,-0.68312 -2.17948,-0.422884 -2.11443,-0.813237 0.0651,-0.390356 0.84577,-1.366242 0.84577,-1.366242 z"
       id="path10" /><path
       style="fill:#000000;stroke-width:0.223308;stroke-linejoin:round;stroke-miterlimit:10"
       d="m 99.433578,26.882111 c -1.187328,-1.268651 -1.431301,-1.512623 -1.67527,-1.886713 -0.243973,-0.374089 -1.772862,0.260236 0.30903,-0.585531 2.081892,-0.845769 1.837918,-0.878298 2.212012,-0.878298 0.37409,0 0.21144,-0.113853 1.21985,0.227707 1.00842,0.34156 1.54516,0.487943 2.17948,0.585531 0.63433,0.09759 0.73192,0.37409 1.08974,0.455414 0.35783,0.08132 0,0.390355 0.86204,-0.04879 0.86203,-0.439149 0.84576,-0.536738 1.04094,-0.536738 0.19518,0 0.29277,0.146383 0.65059,0.260237 0.35783,0.113853 -0.2765,0.357825 1.05721,0.439148 1.33371,0.08132 1.21986,0.292766 1.65901,0.08132 0.43915,-0.211442 0.0325,-0.975886 0.65059,-0.406619 0.61806,0.569267 1.08974,0.71565 1.33371,0.927092 0.24397,0.211442 0.0813,0.227707 0.8295,0.04879 0.74818,-0.178912 0.48795,-0.650591 1.10601,-0.130118 0.61806,0.520472 1.16495,0.531195 2.03902,0.07116 0.87407,-0.460037 0.89707,-0.828067 1.42611,-0.598048 0.52905,0.230018 0.66706,0.483039 -0.32202,0.920075 -0.98908,0.437034 1.58713,0 0.23002,0.368028 -1.35711,0.36803 -1.58713,0.575048 -2.73723,0.759063 -1.15009,0.184015 -0.78206,0.713057 -1.97815,0.09201 -1.1961,-0.621049 -0.46004,-1.035084 -1.70214,-0.621049 -1.2421,0.414034 -1.93216,0.50604 -2.02417,0.575046 -0.092,0.06901 0.25302,-0.230018 -0.87407,-0.575046 -1.12709,-0.345029 -0.27602,-0.460039 -1.84014,-0.36803 -1.56413,0.09201 -2.23119,0.644052 -1.05809,0.575046 1.17309,-0.06901 3.19726,-0.460037 1.35711,0 -1.84015,0.460036 -2.23118,0.644051 -3.12825,0.483039 -0.89708,-0.161012 -1.72514,-0.230018 -2.57621,-0.230018 -0.851071,0 -1.336232,-0.0037 -1.336232,-0.0037 z"
       id="path11" /><path
       style="fill:#000000;stroke-width:0.223308;stroke-linejoin:round;stroke-miterlimit:10"
       d="m 126.85391,25.666719 c 0,0 0.39104,0.276023 0.36803,0.759062 -0.023,0.483037 0.34503,0.736058 0.52905,0.759061 0.18401,0.02299 0.78206,-0.207018 0.59805,0.184015 -0.18402,0.39103 -3.22026,0.06901 0.046,0.644051 3.26626,0.575046 5.65846,1.2421 6.37151,1.380112 0.71306,0.138012 1.58806,0.38422 2.23865,1.327579 0.65059,0.943356 0.78071,0.748178 0.68312,1.39877 -0.0976,0.650589 -1.78913,2.212006 0.52047,0.813236 2.3096,-1.39877 2.63489,-1.821653 3.02525,-2.08189 0.39035,-0.260236 0.48794,-0.227705 0.68312,0.227706 0.19517,0.455414 1.4313,0.09759 0.0325,0.975887 -1.39877,0.878297 -2.04936,0.780708 -3.05778,1.496359 -1.00842,0.71565 -1.33371,0.74818 -2.01683,1.366242 -0.68312,0.618061 -4.8469,0.650589 -0.45541,0.813236 4.39148,0.16265 2.1882,0.402418 5.63848,0.126397 3.45027,-0.276021 2.07016,-0.598048 5.33642,-0.184015 3.26627,0.414033 2.53021,0.966078 4.78439,0.460036 2.25418,-0.506039 4.46236,-1.564124 4.32435,0.184015 -0.13801,1.748142 -2.16217,2.668217 0.27602,1.564127 2.4382,-1.104088 2.53021,-1.2421 3.12826,-0.782063 0.59805,0.460039 -0.092,0.782063 1.65613,1.10409 1.74814,0.322027 2.53021,0.322027 3.31227,0.230018 0.78206,-0.09201 4.14033,1.472118 1.33411,-0.322027 -2.80623,-1.794145 -1.74815,-1.794145 -4.00233,-1.840148 -2.25418,-0.046 -6.34851,-0.552045 -4.46236,-0.828066 1.88615,-0.276021 -0.50604,-0.36803 3.40428,-0.460036 3.91031,-0.09201 7.86663,-0.506043 3.63429,-0.552046 -4.23234,-0.046 -3.54229,-0.184015 -8.14266,-0.230018 -4.60037,-0.04601 -4.32435,0.36803 -7.17658,-0.506042 -2.85223,-0.874069 -5.61245,-0.920073 -2.16217,-1.150093 3.45028,-0.230019 2.99024,-0.230019 5.33643,-0.276022 2.34619,-0.046 4.55437,-0.184015 1.2421,-0.506042 -3.31227,-0.322024 -1.10409,-0.322024 -4.9684,-0.276021 -3.86431,0.046 -3.81831,0.36803 -5.33643,-0.138012 -1.51812,-0.506039 -4.23234,-0.736058 -1.84015,-0.966078 2.39219,-0.230019 3.08225,-0.230019 4.14033,-0.230019 1.05809,0 2.57621,0.184016 5.15242,0.276024 2.57621,0.09201 3.45028,0.50604 4.9684,0.184015 1.51812,-0.322027 1.05809,-0.09201 1.88615,-0.644054 0.82807,-0.552042 1.51813,-0.644051 0.82807,-0.644051 -0.69006,0 -1.84015,0.460036 -1.1961,-0.184015 0.64406,-0.644051 0.92008,-0.322024 0.13801,-0.736058 -0.78206,-0.414035 -1.97816,0.460037 -0.73606,-0.460039 1.24211,-0.920072 2.34619,-1.702136 0.92008,-1.104087 -1.42612,0.598048 -3.40428,1.334106 -2.34619,1.380111 1.05809,0.046 2.62221,0.230018 1.56413,0.368028 -1.05809,0.138012 -2.20818,0.04601 -1.01209,0.322027 1.1961,0.276021 2.76023,-0.276021 1.42612,0.506042 -1.33411,0.782063 -0.46004,0.828066 -3.03625,0.782063 -2.5762,-0.04601 -2.4842,0 -4.46236,-0.138012 -1.97816,-0.138012 -0.78206,-0.36803 -2.80622,-0.36803 -2.02417,0 -4.8764,0.782064 -2.80623,0 2.07017,-0.782063 2.5302,-0.782063 3.40427,-0.920075 0.87408,-0.138009 1.24211,-0.782063 2.99025,-0.368028 1.74814,0.414034 1.88615,0.87407 2.11617,0.414034 0.23002,-0.460039 1.19609,-0.690058 0,-0.736061 -1.1961,-0.046 0.50604,-0.046 -1.88615,-0.046 -2.3922,0 -5.01441,0.460037 -2.89824,-0.09201 2.11617,-0.552045 3.40428,-0.874069 3.40428,-0.874069 0,0 -5.15239,-0.368032 -6.94653,0.230016 -1.79415,0.598049 -0.23002,1.104089 -3.12826,1.196097 -2.89823,0.09201 1.38012,1.564126 -3.45027,0.046 -4.83039,-1.518123 -3.17426,-1.426116 -6.44053,-1.656134 -3.26626,-0.230019 -4.66938,-1.219099 -4.66938,-1.219099 z"
       id="path12" /><path
       style="fill:#000000;stroke-width:0.223308;stroke-linejoin:round;stroke-miterlimit:10"
       d="m 137.65579,27.353789 c 3.22042,-0.569267 2.48851,-0.227706 3.90354,-0.699384 1.41504,-0.471678 1.69154,-0.536739 2.08189,-0.585533 0.39036,-0.04879 -0.0163,-0.09759 0.52048,0.227708 0.53673,0.325295 -0.14639,0.650589 1.00841,0.292767 1.1548,-0.357825 0.8783,-0.666856 1.17107,-0.276503 0.29276,0.390356 0.92709,0.260236 0.43914,0.487945 -0.48794,0.227705 0.56927,-0.0488 -0.89456,0.341558 -1.46383,0.390356 -0.8783,0.146384 -2.01683,0.764445 -1.13853,0.618061 0.17891,0.71565 -1.36624,0.666856 -1.54515,-0.04879 -1.59395,-0.2765 -2.13069,-0.195178 -0.53673,0.08132 -0.95962,-0.195178 -0.86203,0.113853 0.0976,0.30903 2.19575,1.073475 0.0976,0.325297 -2.09815,-0.748181 -2.55357,-0.862034 -3.30175,-1.187328 -0.74818,-0.325297 -1.41503,-0.292767 -0.34156,-0.357825 1.07348,-0.06506 1.69154,0.08132 1.69154,0.08132 z"
       id="path13" /><path
       style="fill:#000000;stroke-width:0.223308;stroke-linejoin:round;stroke-miterlimit:10"
       d="m 151.81093,26.034748 c 1.11559,0.299025 0.25302,0.368031 1.88615,0.287523 1.63314,-0.08051 1.64464,0.02299 2.82923,-0.230018 1.1846,-0.253021 1.86706,-0.804089 2.6315,-0.478793 0.76445,0.325295 0.58554,0.162647 1.05721,0.748179 0.47168,0.58553 1.48671,0.731194 2.17677,1.053221 0.69005,0.322027 0.48304,-0.253021 0.69005,-0.437036 0.20702,-0.184015 0.62105,-0.39103 0.73606,-0.115009 0.11501,0.276024 -0.092,0.299024 -0.046,0.598048 0.046,0.299024 -0.43704,0.391033 0.50604,0.322027 0.94308,-0.06901 1.66228,-0.12007 1.56469,0.02633 -0.0976,0.146384 -0.39035,0.975887 -0.39035,2.130685 0,1.1548 0.13012,2.504776 0.17891,2.862601 0.0488,0.357825 0.0163,1.154797 -0.13011,1.219856 -0.14639,0.06506 0.2277,0.130119 -1.2036,0.04879 -1.4313,-0.08132 -0.16265,-0.08132 -3.04151,-0.08132 -2.87886,0 -3.9686,-0.08132 -3.98487,-0.357825 -0.0163,-0.2765 -0.0813,-0.536739 -0.553,-0.536739 -0.47168,0 -2.24454,-0.146381 -0.50421,-0.260236 1.74033,-0.113853 1.18733,-0.09759 2.27707,-0.09759 1.08974,0 -0.17892,0.24397 2.08189,-0.374091 2.2608,-0.618062 2.48851,-0.536737 2.74874,-0.748179 0.26024,-0.211441 2.68369,-0.585533 -0.13011,-0.260236 -2.81381,0.325295 -3.28549,0.601795 -4.66799,0.845767 -1.38251,0.243973 -0.97589,0.601798 -1.65901,0.243973 -0.68312,-0.357826 -2.61863,0.06506 -0.79697,-0.40662 1.82165,-0.471678 3.18789,-0.471678 2.2608,-0.634325 -0.92709,-0.162648 -2.69995,0.243969 -0.91083,-0.292767 1.78913,-0.536737 3.07405,-0.748178 1.91925,-1.317445 -1.1548,-0.569267 -0.82951,0.471678 -1.54516,0 -0.71565,-0.471681 -0.11385,0.01627 -0.68312,-0.699387 -0.56926,-0.71565 -0.69938,0.01627 -0.60179,-0.780708 0.0976,-0.796975 0.17891,-0.748181 0.30903,-1.008417 0.13012,-0.260236 0.5042,-0.471678 -0.84577,-0.309031 -1.34998,0.16265 -2.28434,0.211878 -3.0549,0.177377 -0.77056,-0.0345 -0.74756,0.207018 -1.00058,-0.230018 -0.25302,-0.437037 -0.25302,-0.333529 -0.18401,-0.563547 0.069,-0.230018 0.0805,-0.345027 0.0805,-0.345027 z"
       id="path14" /></g></svg>
