<svg xmlns="http://www.w3.org/2000/svg" viewBox="0 0 91.43 105.58"><defs><style>.cls-1{fill:#1f272d;}.cls-2{fill:#fff;}</style></defs><title>hexblack</title><g id="Calque_2" data-name="Calque 2"><g id="Hexa_Grey" data-name="Hexa Grey"><polygon class="cls-1" points="45.72 105.58 0 79.18 0 26.39 45.72 0 91.43 26.39 91.43 79.18 45.72 105.58"/><g id="Calque_7_-_copie_5" data-name="Calque 7 - copie 5"><path class="cls-2" d="M52.1,51.15s.07.06.09.09c1.72,3.38,1.53,9,1.53,9,0,1.37-.13,2.6-.13,2.6a73.3,73.3,0,0,1-1.49,9.1l0,0a0,0,0,0,1,0,0C52,72,45,76.52,36.55,76c-1.37-.09-8.6-.53-13.75-5.63-8.62-8.53-7.08-25.78,1.39-33.83,5.78-5.5,13.86-5.84,18.07-6,5.77-.24,32.29.08,32.31.06h0s0,.07,0,.07c0,.19.23,8.87.25,8.93a0,0,0,0,1,0,0h0c-.06,0-2.3-.18-2.37-.15h0l0,0a14.17,14.17,0,0,1-.49-1.38s0,0,0,0h0a167.24,167.24,0,0,0-25-1.58c-3.7,0-6.66.17-9.16,2.23a9.71,9.71,0,0,0-2.25,2.72C32.25,47,29.09,59.57,34.8,67.23c.83,1.11,2.36,3.1,4.77,3.4a7.59,7.59,0,0,0,4.67-1.27,11.24,11.24,0,0,0,2.65-2.43A22.41,22.41,0,0,0,50,62.56C52.69,57.31,51.7,51.15,52.1,51.15Z"/></g><g id="Calque_6_-_copie_5" data-name="Calque 6 - copie 5"><path class="cls-2" d="M60.4,39.92a3.49,3.49,0,0,0-1.52-1.62A4.19,4.19,0,0,0,56.22,38c-1,.11-2,.17-2.95.26L46,38.93s-.08,0-.08,0S46,39,46,39s.53.26,1.42.72c0,0,.45.23,1,.57a20.9,20.9,0,0,1,2.35,1.63,18.35,18.35,0,0,1,3.83,5,32.53,32.53,0,0,1,3,11.08c.33,4.09,0,9.75-1.09,12.48-.07.19-.39,1-.23,1.07s2.21-2.55,2.44-2.87c4.71-6.7,4.49-17.49,4.47-18.35A26.43,26.43,0,0,0,60.4,39.92Z"/></g><g id="Calque_8_-_copie_5" data-name="Calque 8 - copie 5"><path class="cls-2" d="M54.09,74.41v0c-1,1.84-1.14,1.88-1.12,2,.1.78,4.45.79,8.23.87,4,.1,7,.27,9.06-.06.87-.15,4-.81,4.07-.8h0s0,0,0,0c0-.19,1.13-8.25,1.2-8.35s0,0,0-.05,0,0,0,0-2.08-.83-2.25-.86h-.07a.09.09,0,0,0,0,.06c0,.15-1.63,2.57-1.65,2.68a.06.06,0,0,1,0,0h0S67,71.68,65,72.29C60.36,73.7,54.82,73.11,54.09,74.41Z"/></g></g></g></svg>