<svg xmlns="http://www.w3.org/2000/svg" viewBox="0 0 91.43 105.58"><defs><style>.cls-1{fill:#1f272d;}.cls-2{fill:#ffb528;}</style></defs><title>hexcolor</title><g id="Calque_2" data-name="Calque 2"><g id="Hexa_Colored" data-name="Hexa Colored"><polygon class="cls-1" points="45.72 105.58 0 79.18 0 26.39 45.72 0 91.43 26.39 91.43 79.18 45.72 105.58"/><g id="Logo"><g id="Calque_7_-_copie_7" data-name="Calque 7 - copie 7"><path class="cls-2" d="M51.74,51.15s.07.06.09.09c1.72,3.38,1.53,9,1.53,9a25.93,25.93,0,0,1-.14,2.6,71.41,71.41,0,0,1-1.49,9.1,0,0,0,0,1,0,0,0,0,0,0,1,0,0c-.08,0-7.1,4.55-15.53,4-1.36-.09-8.59-.53-13.74-5.63-8.62-8.53-7.08-25.78,1.39-33.83,5.78-5.5,13.85-5.84,18.07-6,5.77-.24,32.28.08,32.31.06h0s0,.07,0,.07c0,.19.23,8.87.25,8.93a0,0,0,0,1,0,0h0c-.06,0-2.3-.18-2.37-.15h0l0,0c0-.07-.49-1.3-.5-1.38v0h0a167.24,167.24,0,0,0-25-1.58c-3.7,0-6.66.17-9.16,2.23a9.71,9.71,0,0,0-2.25,2.72c-3.26,5.57-6.43,18.18-.71,25.84.83,1.11,2.36,3.1,4.77,3.4a7.59,7.59,0,0,0,4.67-1.27,11.2,11.2,0,0,0,2.64-2.43,22,22,0,0,0,3.11-4.37C52.33,57.31,51.34,51.15,51.74,51.15Z"/></g><g id="Calque_6_-_copie_7" data-name="Calque 6 - copie 7"><path class="cls-2" d="M60,39.92a3.54,3.54,0,0,0-1.52-1.62A4.19,4.19,0,0,0,55.86,38c-1,.11-2,.17-3,.26l-7.23.63s-.08,0-.09,0,.07,0,.09,0,.53.26,1.42.72c0,0,.45.23,1,.57a20.9,20.9,0,0,1,2.35,1.63,18.35,18.35,0,0,1,3.83,5,32.23,32.23,0,0,1,3,11.08c.34,4.09,0,9.75-1.08,12.48-.07.19-.39,1-.24,1.07.3.17,2.22-2.55,2.44-2.87,4.72-6.7,4.5-17.49,4.48-18.35A26.43,26.43,0,0,0,60,39.92Z"/></g><g id="Calque_8_-_copie_7" data-name="Calque 8 - copie 7"><path class="cls-2" d="M53.73,74.41v0c-1,1.84-1.14,1.88-1.12,2,.1.78,4.45.79,8.23.87,4,.1,7,.27,9.06-.06.87-.15,4-.81,4.06-.8h0s0,0,0,0c0-.19,1.14-8.25,1.21-8.35s0,0,0-.05a0,0,0,0,0,0,0c-.11,0-2.08-.83-2.25-.86h-.07a.09.09,0,0,0,0,.06c0,.15-1.63,2.57-1.65,2.68a.06.06,0,0,1,0,0h0c-.05,0-4.47,1.77-6.47,2.38C60,73.7,54.46,73.11,53.73,74.41Z"/></g></g></g></g></svg>