<?xml version="1.0" encoding="UTF-8"?>
<!-- Created with Inkscape (http://www.inkscape.org/) -->
<svg width="100mm" height="100mm" version="1.1" viewBox="0 0 100 100" xml:space="preserve" xmlns="http://www.w3.org/2000/svg"><g stroke-width="0"><rect x="-4.3368e-19" width="100" height="100" rx="0" ry="0" display="none"/><g><path d="m84.336 41.705v-27.88h-68.907v25.417l15.488 9.6818-15.294 9.7052v26.473h68.743v-27.829h-19.575l10.484-6.8032-13.924-8.7312z" display="none" style="paint-order:markers stroke fill"/><path d="m81.839 39.224v-22.853h-63.913v21.444l17.711 11.066-17.512 11.121v22.609h63.751v-22.84h-25.568l14.321-9.2356-17.973-11.282z" display="none" style="paint-order:markers stroke fill"/><path d="m79.331 36.754-0.0021-17.892h-58.899v17.892z" style="paint-order:markers stroke fill"/><path d="m25.861 39.906 22.993-0.025357 17.093 10.688-45.326 29.303v-18.488l19.596-12.535z" style="paint-order:markers stroke fill"/><path d="m79.346 80.07-0.0058-17.793h-25.48l-27.336 17.843z" style="paint-order:markers stroke fill"/></g></g></svg>
