<svg xmlns="http://www.w3.org/2000/svg" viewBox="0 0 54.46 56.81"><defs><style>.cls-1{fill:#ff9b2d;}.cls-2{fill:#ffb528;}</style></defs><title>sumgrad</title><g id="Calque_2" data-name="Calque 2"><g id="Icon_Colored2" data-name="Icon Colored2"><path class="cls-1" d="M54.25,12.7a0,0,0,0,1,0,0h0a17.91,17.91,0,0,0-1.94,0h0s0,0,0,0-.11-1.49-.06-1.62,0,0,0-.05-.05,0-.06,0-23.82.83-23.94.81h-.05l0,0S45.24,28.78,45.28,29l0,.1h0a.18.18,0,0,1-.05.08C45.16,29.24,29,43.88,27,45.64l-.07.1.11,0c13.06,0,12.49-.75,25.55-.74a.1.1,0,0,0,.15-.14c0-.91,0-1.33,0-1.41a.15.15,0,0,1,0-.09s.08,0,.09,0a11.89,11.89,0,0,0,1.54.09h.08v0c0,2.16-.15,13.22-.13,13.28a0,0,0,0,1,0,0h0c-.07,0-54.15-.06-54.26,0H0s0,0,0,0,0-4.85,0-4.86a0,0,0,0,1,0,0s0,0,0,0S27.09,28.65,27.19,28.61s0,0,0,0,0,0,0,0S1.61,5.09,1.54,5l0,0a.08.08,0,0,1,0,0S1.48.15,1.5,0l0,0h0C1.61,0,53.88.08,54.1,0c0,0,.06,0,.08,0s0,.08,0,.09C54.13.3,54.26,12.53,54.25,12.7Z"/><path class="cls-2" d="M45.31,29.07l0-.1c0-.19-17.11-17.08-17.14-17.12l0,0h.05c.12,0,23.8-.77,23.94-.81s0,0,.06,0,0,0,0,.05.09,1.53.06,1.62,0,0,0,0h0a17.91,17.91,0,0,1,1.94,0h0a0,0,0,0,0,0,0c0-.17-.12-12.4-.06-12.6,0,0,0-.07,0-.09s-.08,0-.08,0C53.88.08,1.61,0,1.54,0h0l0,0c0,.11,0,4.92,0,4.93a.08.08,0,0,0,0,0l0,0c.07.07,25.56,23.49,25.65,23.55s0,0,0,0,0,0,0,0l-.11.09,9.28,8.49,8.9-8A.18.18,0,0,0,45.31,29.07Z"/></g></g></svg>